<?xml version="1.0" encoding="utf-8"?>
<svg xmlns="http://www.w3.org/2000/svg" xmlns:xlink="http://www.w3.org/1999/xlink" version= "1.1" width="1618px" height="1000px" viewBox="-449 211 1618 1000">
<g id="layer1">
<g style="fill:rgb(0,178,230); fill-opacity:0.99607843; stroke-linejoin: miter">
<path d="M-449.001,210.00323C-449.2651,210.00323,-449.51837,210.10815,-449.7051,210.29489C-449.89185,210.48163,-449.99677,210.73491,-449.99677,210.999L-449.99576,1211.0C-449.99576,1211.5499,-449.54993,1211.9957,-449.0,1211.9957L1169.001,1211.9967C1169.265,1211.9967,1169.5183,1211.8918,1169.7051,1211.7051C1169.8918,1211.5183,1169.9967,1211.265,1169.9967,1211.001L1169.9957,211.0C1169.9957,210.45006,1169.5499,210.00424,1169.0,210.00424L-449.001,210.00323 Z"/>
</g>
<g style="fill:rgb(34,43,50); fill-opacity:0.32941177; stroke-linejoin: miter">
<path d="M886.1233,1125.5825L881.577,1129.006Q849.25397,1139.352,692.4227,1145.555Q534.5063,1151.7532,320.50806,1150.5818Q116.2747,1148.9443,-6.1745577,1140.9995Q-45.40849,1138.4315,-70.80823,1135.4027L-92.15605,1132.2894Q-109.748436,1129.0759,-109.94628,1125.5824Q-104.605705,1114.8616,35.924763,1107.7424Q176.45505,1100.6234,388.0885,1100.3529Q599.72156,1100.6235,740.25226,1107.7426Q880.78284,1114.8616,886.1233,1125.5825"/>
</g>
<g style="fill:rgb(255,255,255); fill-opacity:0.99607843; stroke-linejoin: miter">
<path d="M-8.800166,1036.7766L-8.800044,1036.7771Q-8.800044,1036.7786,-8.800166,1036.7766 Z"/>
</g>
<g style="fill:rgb(60,70,79); fill-opacity:0.99607843; stroke-linejoin: miter">
<path d="M43.625854,480.41928L43.625854,480.41977L43.625854,480.42026L43.625854,480.41977L43.625854,480.41928L43.625854,480.41977L43.625854,480.42026Q43.625854,480.41977,43.625854,480.41928"/>
</g>
<g style="fill:rgb(60,70,79); fill-opacity:0.99607843; stroke-linejoin: miter">
<path d="M65.629,421.40994L65.629,421.41043L65.62912,421.41104L65.629,421.41043L65.629,421.40994L65.629,421.41043L65.62912,421.41104Q65.629,421.41043,65.629,421.40994"/>
</g>
<g style="fill:rgb(60,70,79); fill-opacity:0.99607843; stroke-linejoin: miter">
<path d="M65.629,421.40994L65.629,421.41043L65.62912,421.41104L65.629,421.41043L65.629,421.40994L65.629,421.41043L65.62912,421.41104Q65.629,421.41043,65.629,421.40994"/>
</g>
<g style="fill:rgb(60,70,79); fill-opacity:0.99607843; stroke-linejoin: miter">
<path d="M82.61711,368.4854L82.61711,368.4859L82.61723,368.48633L82.61711,368.4859L82.61711,368.4854L82.61711,368.4859L82.61723,368.48633Q82.61711,368.4859,82.61711,368.4854"/>
</g>
<g style="fill:rgb(60,70,79); fill-opacity:0.99607843; stroke-linejoin: miter">
<path d="M82.61711,368.4854L82.61711,368.4859L82.61723,368.48633L82.61711,368.4859L82.61711,368.4854L82.61711,368.4859L82.61723,368.48633Q82.61711,368.4859,82.61711,368.4854"/>
</g>
<g style="fill:rgb(60,70,79); fill-opacity:0.99607843; stroke-linejoin: miter">
<path d="M82.61711,368.4854L82.61711,368.4859L82.61723,368.48633L82.61711,368.4859L82.61711,368.4854L82.61711,368.4859L82.61723,368.48633Q82.61711,368.4859,82.61711,368.4854"/>
</g>
<g style="fill:rgb(60,70,79); fill-opacity:0.99607843; stroke-linejoin: miter">
<path d="M82.61711,368.4854L82.61711,368.4859L82.61723,368.48633L82.61711,368.4859L82.61711,368.4854L82.61711,368.4859L82.61723,368.48633Q82.61711,368.4859,82.61711,368.4854"/>
</g>
<g style="fill:rgb(60,70,79); fill-opacity:0.99607843; stroke-linejoin: miter">
<path d="M59.15998,462.15976L59.15998,462.16025L59.160103,462.16098L59.15998,462.16025L59.15998,462.15976L59.15998,462.16025L59.160103,462.16098Q59.15998,462.16025,59.15998,462.15976"/>
</g>
<g style="fill:rgb(34,43,50); fill-opacity:0.99607843; stroke-linejoin: miter">
<path d="M117.81468,389.5638L117.81468,389.564L117.81456,389.56448L117.81468,389.564L117.81468,389.5638L117.81468,389.564L117.81456,389.56448Q117.81468,389.564,117.81468,389.5638"/>
</g>
<g style="fill:rgb(34,43,50); fill-opacity:0.99607843; stroke-linejoin: miter">
<path d="M117.81468,389.5638L117.81468,389.564L117.81456,389.56448L117.81468,389.564L117.81468,389.5638L117.81468,389.564L117.81456,389.56448Q117.81468,389.564,117.81468,389.5638"/>
</g>
<g style="fill:rgb(255,197,161); fill-opacity:0.99607843; stroke-linejoin: miter">
<path d="M250.82483,931.8691L253.47089,932.485Q280.41095,938.3358,288.72824,945.5859L294.96497,950.7924Q327.90402,983.7377,338.63568,992.3399Q357.78564,1008.6002,368.7304,1014.001Q382.27432,1021.20435,400.79102,1023.59424Q422.0242,1026.4133,429.53265,1022.49194Q459.41022,1008.8921,501.61325,991.1063Q514.073,985.2016,518.3154,982.1021Q524.3271,978.1357,529.0252,973.282L549.78485,949.3113L556.5555,943.9305L575.11414,931.60394Q578.5099,929.2896,584.5207,921.58344L602.5983,891.7888Q605.37,886.86426,605.8383,881.77936Q602.9889,859.2184,587.6115,861.4037L593.1883,816.6636Q592.9932,805.0284,587.85724,804.87274Q581.59576,803.5811,571.4395,807.6399Q564.7389,812.34595,557.4688,821.7094Q549.3772,831.3753,550.096,852.04346Q540.96533,860.056,535.2117,868.4708L517.44147,901.27527Q513.83185,907.4378,506.49652,915.58167Q499.91122,922.4285,493.81125,925.194L473.49124,933.58936Q469.46188,935.0143,467.9846,934.8409Q466.4017,935.1564,463.00397,933.124Q451.33685,919.4925,439.88272,913.68787L430.37796,909.6247Q407.68103,902.43884,388.92285,894.33575Q373.13492,887.4232,363.697,880.2367Q357.30692,875.92523,345.26385,863.00226L305.31003,816.3145Q292.83197,804.2846,287.4962,802.153Q268.44977,790.69794,232.34619,804.82794Q213.02417,811.8158,190.79259,826.4641L250.82483,931.8691"/>
</g>
<g style="fill:rgb(255,241,232); fill-opacity:0.99607843; stroke-linejoin: miter">
<path d="M435.7801,922.3773L435.7801,922.3782Q447.92227,930.1592,450.19998,933.2521Q454.4646,937.66833,454.76538,943.1354Q454.84094,944.9401,454.4829,946.719Q454.12473,948.4977,453.3702,950.14197L452.52588,951.72546Q449.29056,956.6175,444.71432,957.5718Q442.66,958.0899,439.5421,957.88776Q438.77902,957.9533,434.323,957.0329Q433.4606,956.90485,428.70746,955.4041Q425.84454,954.4824,418.87064,951.75806L435.7801,922.3773"/>
</g>
<g style="fill:rgb(255,255,255); fill-opacity:0.99607843; stroke-linejoin: miter">
<path d="M144.25888,814.75183L182.30945,804.0494L220.35986,793.347Q241.6435,869.0144,262.92715,944.6815L186.82648,966.0879Q165.54257,890.41986,144.25888,814.75183"/>
</g>
<g style="fill:rgb(34,43,50); fill-opacity:0.99607843; stroke-linejoin: miter">
<path d="M24.663681,675.32666L24.663681,675.327L24.663681,675.327L24.663681,675.327L24.663681,675.32666L24.663681,675.327L24.663681,675.327Q24.663681,675.327,24.663681,675.32666"/>
</g>
<g style="fill:rgb(34,43,50); fill-opacity:0.99607843; stroke-linejoin: miter">
<path d="M24.663681,675.32666L24.663681,675.327L24.663681,675.327L24.663681,675.327L24.663681,675.32666L24.663681,675.327L24.663681,675.327Q24.663681,675.327,24.663681,675.32666"/>
</g>
<g style="fill:rgb(34,43,50); fill-opacity:0.99607843; stroke-linejoin: miter">
<path d="M24.663681,675.32666L24.663681,675.327L24.663681,675.327L24.663681,675.327L24.663681,675.32666L24.663681,675.327L24.663681,675.327Q24.663681,675.327,24.663681,675.32666"/>
</g>
<g style="fill:rgb(34,43,50); fill-opacity:0.99607843; stroke-linejoin: miter">
<path d="M24.663681,675.32666L24.663681,675.327L24.663681,675.327L24.663681,675.327L24.663681,675.32666L24.663681,675.327L24.663681,675.327Q24.663681,675.327,24.663681,675.32666"/>
</g>
<g style="fill:rgb(34,43,50); fill-opacity:0.99607843; stroke-linejoin: miter">
<path d="M-32.698544,830.5916L64.521515,808.98645L161.74156,787.38104Q183.34837,884.60016,204.95526,981.8196Q107.73544,1003.4269,10.515623,1025.0344Q-11.091421,927.8132,-32.698544,830.5916"/>
</g>
<g style="fill:rgb(0,0,0); fill-opacity:1.0; stroke-linejoin: miter">
<path d="M520.82135,728.36725L322.5107,728.3679L322.51065,406.92145L520.8215,406.92233L520.82135,728.36725 Z M406.23428,761.0069C406.23428,752.1694,413.33176,745.00006,422.08835,745.00006C430.8479,745.0,437.94244,752.16943,437.94244,761.00696C437.94247,769.84143,430.84796,777.0228,422.0884,777.0229C413.33182,777.0108,406.2343,769.84143,406.23428,761.0069 M534.12714,775.53455L534.1541,775.5354L534.1541,390.30667L534.1541,390.30368L534.1541,390.2258L534.1481,390.22668C534.1062,381.43033,526.9698,374.31183,518.15924,374.3118C518.0964,374.3118,518.0454,374.3178,517.9885,374.3178L517.9885,374.3118L482.0608,374.31265L377.24536,374.3119L325.17297,374.31268C316.37448,374.31784,309.24405,381.43634,309.1961,390.2258L309.19315,390.22665L309.19327,775.5313L309.21722,775.5321C309.21124,775.699,309.19327,775.8637,309.19327,776.0374C309.19324,784.6562,316.43747,791.6458,325.3767,791.6458C325.50848,791.6458,325.63727,791.62787,325.76904,791.62494L325.76904,791.6458L518.3776,791.6469L518.3776,791.646C527.07446,791.6461,534.151,784.65955,534.15106,776.0377C534.1541,775.86707,534.13306,775.6993,534.12714,775.53455"/>
</g>
<g style="fill:rgb(155,211,255); fill-opacity:1.0; stroke-linejoin: miter">
<path d="M520.8215,406.92145L520.82135,728.36725L322.5107,728.3679L322.51065,406.92145 Z"/>
</g>
<g style="fill:rgb(60,70,79); fill-opacity:1.0; stroke-linejoin: miter">
<path d="M422.08835,745.00006C430.8479,745.0,437.94244,752.16943,437.94244,761.00696C437.94247,769.84143,430.84796,777.0228,422.0884,777.0229C413.33182,777.0108,406.2343,769.84143,406.23428,761.0069C406.23428,752.1694,413.33176,745.00006,422.08835,745.00006 Z"/>
</g>
<g style="fill:rgb(255,255,255); fill-opacity:0.21176471; stroke-linejoin: miter">
<path d="M517.1225,400.09308L419.56967,491.34033L322.0167,582.58746L322.53882,722.6125Q424.15173,620.80524,525.7646,518.9977L517.1225,400.09308"/>
</g>
<g style="fill:rgb(255,255,255); fill-opacity:1.0; stroke-linejoin: miter">
<path d="M751.5121,690.873L750.57764,698.999Q743.93243,723.55634,711.68994,738.28Q679.22406,752.992,635.22815,750.2115Q593.2395,746.32513,568.06506,727.4671Q559.99884,721.37146,554.7769,714.18317L550.388,706.793Q546.77124,699.16534,546.73047,690.87317Q547.8287,665.42584,576.72046,648.52814Q605.61224,631.6307,649.12177,630.98865Q692.63104,631.6308,721.5225,648.5283Q750.41394,665.42596,751.5121,690.873"/>
</g>
<g style="fill:rgb(164,174,181); fill-opacity:0.99607843; stroke-linejoin: miter">
<path d="M662.91626,934.6271Q663.8804,934.50037,665.24677,934.4745Q666.1585,934.42664,669.29083,934.5663 Z"/>
</g>
<g style="fill:rgb(255,0,57); fill-opacity:1.0; stroke-linejoin: miter">
<path d="M240.86172,479.33548C240.84006,479.34955,240.81863,479.36383,240.79715,479.37796C234.25456,483.7114,229.96611,490.04953,228.43266,497.5968C227.73222,501.12094,227.61833,503.43405,227.89372,508.7035C227.89604,508.73212,227.88676,508.75293,227.86613,508.76648C227.72777,508.85773,227.07451,508.61298,225.92143,508.05536C220.11432,505.18942,213.37431,504.02136,207.70479,504.8963C203.10065,505.59598,198.76375,507.28766,194.72116,509.9532C193.67581,510.6424,192.65024,511.39667,191.64468,512.21576C185.4986,517.18634,181.7703,523.12787,180.31563,530.21173C179.04219,536.4816,179.73688,542.7335,182.4759,549.43195C183.71559,552.4685,187.11293,557.6758,189.42488,560.0793C197.01283,567.9638,207.74164,573.4849,224.40213,578.06055C231.52014,580.03253,244.53596,582.44446,255.62823,583.8936C261.8518,584.709,275.2988,586.14105,278.9018,586.37775C278.91046,586.3784,278.9206,586.375,278.93158,586.3677C279.32465,586.1086,281.1474,580.93604,283.6817,573.05396C291.5937,548.2684,295.1125,527.06134,293.89935,511.3288C292.93246,498.72498,289.12033,488.9312,282.62268,482.305C279.46878,479.09604,275.36804,476.3603,271.51904,474.8978C268.80447,473.86685,264.06158,472.9959,261.20123,472.98755C254.42224,472.96707,246.99841,475.2892,240.86172,479.33548 Z"/>
</g>
<g style="fill:rgb(38,120,95); fill-opacity:1.0; stroke-linejoin: miter">
<path d="M135.41377,722.41705C134.5567,723.70465,134.10416,724.39923,134.11252,724.4218C134.20831,724.5661,149.09576,734.7722,167.2361,747.1186L200.19943,769.58765L245.58223,703.2955L290.93594,636.9864L257.72458,614.30865L224.51138,591.6309L179.26436,657.89667C158.11137,688.8748,140.26514,715.13477,135.41377,722.41705 Z M163.04933,710.1717L192.4935,667.0471L221.93938,623.9241L163.04933,710.1717 Z M229.13097,691.6323C229.11629,691.6543,229.10207,691.6758,229.08647,691.698C229.07207,691.7191,229.05846,691.74146,229.04375,691.7637 Z M202.99492,737.25244L261.82968,651.08435L232.4042,694.18097L202.99492,737.25244 Z"/>
</g>
<g style="fill:rgb(38,120,95); fill-opacity:1.0; stroke-linejoin: miter">
<path d="M131.60406,724.02057C131.70078,724.164,146.58783,734.3689,164.72885,746.7161L197.69263,769.18475L243.07509,702.8934L288.4291,636.5837L255.21765,613.9067L222.00598,591.2292L176.75812,657.49365C151.86693,693.9471,131.55322,723.8675,131.60406,724.02057 Z M221.17296,624.2814C224.73459,625.85657,228.10823,625.82196,231.61575,624.16595C232.89032,623.55524,234.0134,622.7647,234.78293,621.9267C235.4071,621.1817,236.10916,620.61127,236.29541,620.62213C237.01933,620.6469,255.83032,633.4927,255.87933,633.99207C255.87543,634.2241,255.57196,635.068,255.18842,635.85815C254.23846,637.704,253.92047,641.4222,254.49188,643.6055C255.11981,645.82556,256.47806,648.1169,258.0423,649.5351L259.3227,650.6823L229.8983,693.7798L200.48912,736.8495L198.5001,735.99695C197.41621,735.5283,195.94104,735.0668,195.228,734.9713C191.88486,734.55786,187.43466,736.0001,185.34735,738.19836C184.86981,738.7278,184.2294,739.3805,183.93106,739.6456L183.40802,740.1843L173.57755,733.4713C162.57756,725.96045,163.5306,726.96204,164.80013,724.3601C165.69478,722.47943,165.94518,719.8859,165.47429,717.3819C164.96805,714.6986,163.09367,711.51025,161.31425,710.29376L160.54424,709.768L189.9882,666.6446L219.434,623.52264L221.17296,624.2814 Z"/>
</g>
<g style="fill:rgb(38,120,95); fill-opacity:1.0; stroke-linejoin: miter">
<path d="M191.64175,671.9816C190.16766,675.33673,189.60402,679.4735,190.14421,683.0749C190.6857,686.56226,191.7457,689.11633,193.83698,692.10175C195.26926,694.17126,195.68474,694.53284,198.74043,696.6199C201.71613,698.6518,202.32913,698.9516,204.56256,699.5041C209.40257,700.74445,214.11948,700.34155,218.31683,698.41626C226.26326,694.7639,231.0813,685.93854,229.80203,677.43036C228.29738,667.4809,220.17784,660.2597,210.29137,660.1327C202.37434,660.02606,194.7904,664.85876,191.64175,671.9816 Z"/>
</g>
<g style="fill:rgb(42,175,134); fill-opacity:1.0; stroke-linejoin: miter">
<path d="M193.30533,668.99744C197.02779,663.54395,203.539,660.04297,210.29137,660.1327C220.17784,660.2597,228.29738,667.4809,229.80203,677.43036C230.54391,682.3683,229.23471,687.413,226.4496,691.49023C224.43584,694.4391,221.65103,696.8832,218.31683,698.41626C214.11948,700.34155,209.40257,700.74445,204.56256,699.5041C202.32913,698.9516,201.71613,698.6518,198.74043,696.6199C195.68474,694.53284,195.26926,694.17126,193.83698,692.10175C191.7457,689.11633,190.6857,686.56226,190.14421,683.0749C189.60402,679.4735,190.16766,675.33673,191.64175,671.9816C192.10498,670.93427,192.66492,669.93713,193.30533,668.99744 Z M160.54424,709.768L161.31425,710.29376C163.09367,711.51025,164.96805,714.6986,165.47429,717.3819C165.94518,719.8859,165.69478,722.47943,164.80013,724.3601C163.5306,726.96204,162.57756,725.96045,173.57755,733.4713L183.40802,740.1843L183.93106,739.6456C184.2294,739.3805,184.86981,738.7278,185.34735,738.19836C187.43466,736.0001,191.88486,734.55786,195.228,734.9713C195.94104,735.0668,197.41621,735.5283,198.5001,735.99695L200.48912,736.8495L259.3227,650.6823L258.0423,649.5351C256.47806,648.1169,255.11981,645.82556,254.49188,643.6055C253.92047,641.4222,254.23846,637.704,255.18842,635.85815C255.57196,635.068,255.87543,634.2241,255.87933,633.99207C255.83032,633.4927,237.01933,620.6469,236.29541,620.62213C236.10916,620.61127,235.4071,621.1817,234.78293,621.9267C234.0134,622.7647,232.89032,623.55524,231.61575,624.16595C228.10823,625.82196,224.73459,625.85657,221.17296,624.2814L219.434,623.52264 Z"/>
</g>
<g style="fill:rgb(18,91,69); fill-opacity:1.0; stroke-linejoin: miter">
<path d="M193.24016,674.1507L195.78091,675.61743Q195.4271,678.24475,196.5568,680.6667Q197.68665,683.08856,200.1137,684.49Q201.66847,685.38745,203.42184,685.5905Q205.1373,685.77216,206.75229,685.3394Q208.36742,684.90656,209.78423,683.8538Q211.17921,682.8392,212.07677,681.2841L212.2082,681.05695Q212.54665,680.6453,213.06325,680.53925Q213.57957,680.43243,214.07253,680.7172Q214.60353,681.02386,214.76369,681.62225Q214.92393,682.2203,214.61745,682.75116Q214.31096,683.2819,213.71288,683.4423Q213.11467,683.6027,212.58385,683.2961L208.94942,689.59106Q210.16296,690.292,211.48154,690.5475Q212.74028,690.8191,214.06056,690.7218Q215.32103,690.6404,216.5451,690.1843Q217.73145,689.7064,218.76143,688.88513L221.64355,690.54926L225.32158,684.17847L222.0984,682.3173Q222.16328,679.9279,221.01584,677.7992Q219.90646,675.6924,217.70695,674.4226Q216.15218,673.52466,214.39876,673.3214Q212.68335,673.13995,211.06833,673.5727Q209.45322,674.00555,208.03644,675.0583Q206.6416,676.0728,205.74388,677.628L205.61253,677.8554Q205.27388,678.2668,204.71959,678.351Q204.2032,678.45734,203.74812,678.1949Q203.21709,677.88824,203.01888,677.268Q202.85863,676.66986,203.16508,676.1391Q203.4717,675.6082,204.10777,675.4699Q204.70598,675.3095,205.23698,675.61615L208.87125,669.32104Q206.67174,668.05133,204.25453,668.1218Q201.83737,668.19257,199.80042,669.4438L196.91832,667.7799 Z"/>
</g>
<g style="fill:rgb(42,175,134); fill-opacity:1.0; stroke-linejoin: miter">
<path d="M193.25066,674.8681L195.79129,676.33496Q195.43756,678.96185,196.56738,681.38385Q197.69713,683.8059,200.12407,685.20715Q201.67885,686.105,203.43234,686.3083Q205.14777,686.48956,206.76266,686.05707Q208.3777,685.6241,209.7947,684.5715Q211.18953,683.5566,212.08714,682.0018L212.21858,681.77423Q212.55711,681.363,213.07362,681.25653Q213.59004,681.1502,214.083,681.4349Q214.61382,681.7413,214.77406,682.33954Q214.93443,682.9379,214.62794,683.4687Q214.32141,683.99945,213.72333,684.1597Q213.12512,684.3201,212.59421,684.0135L208.9599,690.3086Q210.17322,691.0089,211.492,691.265Q212.75075,691.5366,214.07103,691.43933Q215.3315,691.3579,216.5555,690.9015Q217.74171,690.4236,218.77184,689.6023L221.65393,691.26666L225.33208,684.8956L222.10881,683.03485Q222.17366,680.6452,221.02641,678.5163Q219.91681,676.4098,217.71742,675.1398Q216.16264,674.2423,214.40923,674.0388Q212.6938,673.85754,211.0788,674.2901Q209.46368,674.72284,208.04681,675.77545Q206.65201,676.7906,205.75435,678.3454L205.6229,678.57275Q205.28436,678.98413,204.73007,679.0685Q204.21344,679.1747,203.75848,678.912Q203.22745,678.60583,203.02934,677.98553Q202.8691,677.38763,203.17561,676.8565Q203.48207,676.3256,204.11824,676.18744Q204.71626,676.0267,205.24727,676.3333L208.88162,670.0386Q206.68217,668.7687,204.26491,668.83936Q201.84775,668.9101,199.81088,670.1613L196.92885,668.49713 Z"/>
</g>
<g style="fill:rgb(253,217,8); fill-opacity:1.0; stroke-linejoin: miter">
<path d="M555.1764,437.65332L555.64795,428.88046Q559.48413,402.33383,579.61206,386.17896Q599.8811,370.03296,627.6773,372.659Q654.2237,376.49454,670.37946,396.6223Q675.5564,403.12906,678.9555,410.8398L681.8313,418.7742Q684.2233,426.97137,684.3687,435.91574Q684.0447,463.3749,666.06195,481.84766Q648.07935,500.31915,620.6395,501.3813Q593.1805,501.05698,574.7087,483.0749Q556.2371,465.0928,555.1764,437.65332 Z"/>
</g>
<g style="fill:rgb(238,170,1); fill-opacity:1.0; stroke-linejoin: miter">
<path d="M565.28546,437.35416L565.6846,429.95438Q568.9207,407.5629,585.8977,393.9354Q602.9946,380.31754,626.44104,382.53232Q648.83185,385.76773,662.45953,402.74622Q666.82544,408.23468,669.69214,414.7376L672.1188,421.43054Q674.1362,428.34396,674.259,435.88922Q673.9859,459.05066,658.81714,474.63168Q643.6498,490.21368,620.50336,491.1094Q597.3426,490.83536,581.76196,475.66782Q566.18134,460.4996,565.28546,437.35416 Z"/>
</g>
<g style="fill:rgb(255,183,13); fill-opacity:1.0; stroke-linejoin: miter">
<path d="M566.6174,437.3158L567.00653,430.09637Q570.1636,408.25223,586.7258,394.95795Q603.4049,381.67218,626.2782,383.83313Q648.1219,386.98978,661.41644,403.553Q665.67566,408.90784,668.4725,415.25125L670.8396,421.78113Q672.808,428.5255,672.9277,435.8864Q672.6612,458.48193,657.8633,473.68204Q643.0664,488.8832,620.4858,489.75705Q597.8909,489.4896,582.69104,474.6929Q567.4912,459.89532,566.6174,437.3158 Z"/>
</g>
<g style="fill:rgb(238,170,1); fill-opacity:1.0; stroke-linejoin: miter">
<path d="M614.86957,407.30853L614.8695,412.7873Q610.29004,414.66785,607.428,418.75674Q604.566,422.84546,604.566,428.07925Q604.5659,431.43173,605.8745,434.45734Q607.1828,437.40137,609.3907,439.60922Q611.59845,441.81702,614.6244,443.12534Q617.5681,444.434,620.9208,444.43402L621.4115,444.4342Q622.39294,444.5973,623.04706,445.33347Q623.7011,446.06937,623.7011,447.13232Q623.7011,448.2772,622.88324,449.09494Q622.0656,449.91278,620.92065,449.91278Q619.776,449.91278,618.95825,449.09515Q618.1404,448.27716,618.1404,447.1323L604.566,447.13284Q604.566,449.7493,605.38354,452.1206Q606.1196,454.41028,607.5098,456.45477Q608.81793,458.41724,610.6989,459.97095Q612.5798,461.44287,614.8695,462.34238L614.86945,468.5572L628.6076,468.55774L628.60767,461.60654Q632.53265,459.48,634.9043,455.6367Q637.27563,451.87555,637.27563,447.1327Q637.2756,443.77988,635.9671,440.75388Q634.659,437.81,632.45105,435.6024Q630.2431,433.39444,627.21747,432.0859Q624.2735,430.7776,620.9207,430.77795L620.4301,430.77814Q619.4488,430.61432,618.7948,429.79657Q618.1405,429.06067,618.1405,428.07925Q618.1405,426.9344,618.95825,426.03455Q619.77576,425.21695,620.92065,425.21695Q622.06555,425.21695,622.8834,426.11664Q623.7011,426.93417,623.7011,428.07922L637.2756,428.0798Q637.2756,423.33636,634.90424,419.4926Q632.5327,415.64923,628.60754,413.52335L628.6075,407.30853 Z"/>
</g>
<g style="fill:rgb(253,217,8); fill-opacity:1.0; stroke-linejoin: miter">
<path d="M613.71893,407.9951L613.7189,413.47385Q609.13965,415.35477,606.27747,419.4433Q603.41534,423.53204,603.41534,428.7658Q603.4154,432.11865,604.7239,435.14426Q606.0321,438.08792,608.24005,440.29575Q610.44794,442.50375,613.47345,443.8119Q616.41736,445.12085,619.77026,445.12088L620.26074,445.12106Q621.24194,445.28415,621.89636,446.02005Q622.5506,446.7561,622.5506,447.81924Q622.5506,448.96393,621.73267,449.78174Q620.91504,450.5995,619.77026,450.5995Q618.62524,450.5995,617.8076,449.7817Q616.98987,448.9639,616.98987,447.8192L603.41534,447.81943Q603.41534,450.43582,604.2329,452.80725Q604.969,455.09723,606.35925,457.14142Q607.66754,459.1042,609.5484,460.65784Q611.42914,462.1295,613.71893,463.02933L613.7189,469.2441L627.457,469.24432L627.45703,462.29312Q631.382,460.16714,633.75354,456.32358Q636.125,452.5621,636.125,447.81924Q636.12506,444.4664,634.8167,441.4408Q633.50836,438.49673,631.30054,436.28894Q629.0925,434.08093,626.0671,432.77283Q623.12286,431.4645,619.7702,431.4645L619.2795,431.46503Q618.29816,431.3009,617.6441,430.48306Q616.98987,429.74722,616.98987,428.7658Q616.98987,427.62112,617.8076,426.72125Q618.62524,425.9035,619.77014,425.9035Q620.91516,425.9035,621.7328,426.8032Q622.55054,427.62115,622.55054,428.76584L636.12506,428.76633Q636.12494,424.02292,633.75354,420.17953Q631.3821,416.33615,627.45703,414.20987L627.4571,407.99506 Z"/>
</g>
<g style="fill:rgb(255,255,255); fill-opacity:1.0; stroke-linejoin: miter">
<path d="M672.9463,741.3426L670.4906,743.40594Q654.4882,757.1857,643.8485,762.71625Q640.27966,764.763,632.20294,767.24866Q626.4463,768.9108,616.24396,770.443Q623.5905,765.2196,626.27386,762.3899Q628.763,759.5699,628.8361,759.0278Q629.4212,757.9212,629.5569,756.83746Q629.6791,755.7546,629.3516,754.6946Q629.40765,754.1534,627.5629,751.5566Q625.5241,748.9697,619.3378,744.4431L645.06274,744.0521L672.9463,741.3426"/>
</g>
<g style="fill:rgb(255,0,0); fill-opacity:1.0; stroke-linejoin: miter">
<path d="M692.15326,482.44397C690.99976,484.54736,689.4296,487.38754,688.6475,488.8586C687.81177,490.2815,683.9766,497.17303,680.09357,504.1183C676.2105,511.06335,672.2114,517.76056,671.164,519.0429C663.7831,528.0722,666.69977,541.71027,676.96094,546.576C678.53046,547.3014,680.96893,548.0796,682.3572,548.30585L684.93054,548.77057L683.4537,549.66974C681.18756,551.0215,678.14636,554.86237,676.6982,558.0522C675.6184,560.55884,675.4674,561.4843,675.696,565.4954C675.92175,569.45557,676.1826,570.45966,677.6083,573.129C678.46826,574.8118,679.7967,576.67175,680.4916,577.24347C681.18634,577.8152,681.7825,578.44336,681.79407,578.6465C681.80273,578.7988,680.51447,579.4325,678.91864,580.03296C673.7279,581.9079,668.8863,587.2268,667.7003,592.3374C667.092,595.07153,667.40173,600.50446,668.31665,603.1522C669.34766,606.0477,672.1454,609.55585,675.119,611.6787C680.0521,615.11615,675.47095,615.17334,749.702,610.9429L816.3677,607.1435L816.1362,603.0818L815.9047,599.0198L811.8431,599.2518L807.78107,599.4828L807.21674,589.582L806.6525,579.6809L810.71454,579.4499L814.77625,579.2179L814.6894,577.6948L814.6055,576.22253L819.57275,575.7865L824.48914,575.35345L824.4186,571.4352L824.34814,567.517L821.3947,567.5325L818.441,567.54803L817.87683,557.64703L817.3127,547.74634L820.24884,547.4262L823.185,547.1059L822.80994,543.20514L822.4348,539.30414L819.2782,539.3313L816.0707,539.36115L815.87964,536.01025C815.7119,533.06525,815.41174,532.2672,813.2203,528.6735C811.87445,526.5092,809.45685,522.5208,807.88184,519.91077L804.9609,515.1362L809.92804,514.70026L814.89514,514.26447L814.7437,508.92432L814.5413,503.58743L809.7041,498.25983C807.0398,495.30444,800.84937,488.5767,795.9614,483.2521L787.0558,473.57184L740.6428,476.11493L694.17896,478.6611L692.15326,482.44397 Z M799.43665,524.56915L799.9576,533.70844L740.8512,536.97504L681.7418,540.19086L679.67206,538.7297C676.69556,536.5561,675.45404,534.4366,675.31683,531.13324C675.1402,528.0361,675.9777,525.74713,677.9944,523.5944L679.3437,522.2442L739.1044,518.8385L798.9159,515.4299L799.43665,524.56915 Z M809.2453,558.13904L809.80945,568.04004L751.9362,571.491C686.34235,575.3312,690.36786,575.3562,686.5286,571.4492C685.28564,570.1955,684.1688,568.4763,683.9079,567.4724C682.58575,562.14825,685.6387,556.7274,690.8468,555.1573C691.6984,554.905,718.55194,553.2728,750.54236,551.5008L808.6811,548.23834L809.2453,558.13904 Z M798.9974,590.15234L799.6574,599.94574L741.5214,603.25885C677.4958,606.9078,681.4677,606.8851,678.2782,603.65405C674.439,599.7469,674.4137,593.94135,678.21063,589.95544C681.1879,586.7803,678.35046,587.044,740.90936,583.5807L798.2895,580.4124L798.9974,590.15234 Z"/>
</g>
<g style="fill:rgb(255,255,255); fill-opacity:1.0; stroke-linejoin: miter">
<path d="M679.337,522.1264C679.30804,522.128,679.2807,522.1402,679.2602,522.1607L677.91095,523.5109L677.9082,523.51373C675.86896,525.69037,675.02057,528.0113,675.199,531.13995C675.33826,534.4835,676.6021,536.63403,679.6024,538.825L679.60394,538.82623L681.6737,540.2873C681.69543,540.3027,681.7217,540.3101,681.7482,540.30865L740.85754,537.09296L740.8577,537.0933L799.9642,533.8264L799.9643,533.8267C799.99554,533.82465,800.02484,533.8105,800.0456,533.7872C800.0665,533.76373,800.0772,533.7331,800.07544,533.7017L799.5545,524.5624L799.03375,515.42316C799.03,515.3581,798.97424,515.3084,798.9091,515.3121L739.09766,518.7207L679.337,522.1264 Z"/>
</g>
<g style="fill:rgb(255,255,255); fill-opacity:1.0; stroke-linejoin: miter">
<path d="M734.61926,552.2769C710.10736,553.6739,691.53644,554.8299,690.8133,555.044L690.81274,555.04425C685.54346,556.6329,682.45624,562.11664,683.79333,567.5008L683.7937,567.50214C684.06213,568.5351,685.1952,570.27185,686.4447,571.53235L686.44476,571.5326C686.65466,571.746,686.837,571.94336,687.01416,572.1354L687.0142,572.13556C687.16907,572.303,687.32056,572.46716,687.46893,572.61816C689.675,574.86316,691.9948,575.06885,721.89734,573.36475C727.3808,573.0521,733.4991,572.6924,740.94305,572.25476L740.94305,572.255L751.9431,571.6088L751.94324,571.60913L809.8165,568.1577C809.88153,568.154,809.9311,568.09814,809.92737,568.0333L809.3632,558.13226L808.7989,548.2316C808.7952,548.1665,808.7395,548.11676,808.6745,548.1204L750.5357,551.3829L750.5359,551.38324C745.01385,551.6888,739.7331,551.98553,734.61926,552.2769 Z"/>
</g>
<g style="fill:rgb(255,255,255); fill-opacity:1.0; stroke-linejoin: miter">
<path d="M712.9254,585.0204C680.94794,586.8428,680.54614,587.1947,678.47186,589.4949C678.36285,589.6156,678.2477,589.74335,678.1245,589.87476L678.1245,589.8751C674.2847,593.90625,674.30994,599.78394,678.194,603.7368L678.19415,603.73694C678.37024,603.9153,678.52606,604.08575,678.67236,604.2459C678.80035,604.38586,678.9291,604.52673,679.05396,604.6531C681.0849,606.71045,683.64594,606.67786,723.27734,604.41925L723.2774,604.41956L731.3137,603.9601L741.5282,603.37665L799.6642,600.06366C799.6957,600.0619,799.7251,600.0476,799.746,600.024C799.7668,600.0004,799.77734,599.9693,799.7752,599.93774L799.1151,590.14435L799.1151,590.14374L798.4072,580.4038C798.4025,580.3396,798.34735,580.291,798.28296,580.29443L740.90283,583.46277L740.9029,583.4634L734.7052,583.80554L729.33356,584.1028C722.98004,584.45435,717.782,584.7435,712.9254,585.0204 Z"/>
</g>
<g style="fill:rgb(255,255,255); fill-opacity:1.0; stroke-linejoin: miter">
<path d="M372.7364,404.9005L372.7364,404.90097L372.7364,404.9008C372.79736,405.97052,371.97952,406.88718,370.90973,406.94815C369.8401,407.0091,368.9235,406.1913,368.86252,405.12158L368.86252,405.12195L368.86252,405.12134C368.80154,404.0516,369.61932,403.135,370.68896,403.07407C371.75876,403.01306,372.6754,403.83078,372.7364,404.9005 Z"/>
</g>
<g style="fill:rgb(255,255,255); fill-opacity:1.0; stroke-linejoin: miter">
<path d="M122.179276,354.61768C122.10727,354.62186,122.052246,354.6836,122.05634,354.7555L122.323044,359.43558L122.58978,364.11572C122.59177,364.15024,122.60736,364.18268,122.63321,364.20566C122.65906,364.22867,122.69296,364.24054,122.72757,364.23856L166.90414,361.7209L211.08073,359.20325C211.11531,359.20123,211.14766,359.18558,211.17076,359.15973C211.19379,359.1339,211.20563,359.1,211.20366,359.06543L210.93695,354.38538L210.67023,349.70532C210.66614,349.63336,210.60445,349.57837,210.53247,349.58243 Z"/>
</g>
<g style="fill:rgb(255,255,255); fill-opacity:1.0; stroke-linejoin: miter">
<path d="M123.6422,380.28705C123.57019,380.29123,123.51517,380.35297,123.51926,380.42496L123.78601,385.10507L124.052765,389.78607C124.05475,389.82065,124.07034,389.853,124.09619,389.876C124.12204,389.89893,124.155945,389.9109,124.19055,389.90887L229.42015,383.91083C229.49211,383.90665,229.54716,383.84506,229.54305,383.77307L229.27634,379.09296L229.00961,374.4128C229.00554,374.34085,228.94379,374.2857,228.87184,374.28986 Z"/>
</g>
<g style="fill:rgb(255,255,255); fill-opacity:1.0; stroke-linejoin: miter">
<path d="M119.99967,316.37308C119.953415,316.3757,119.918076,316.41534,119.92071,316.46155L120.189026,321.16992L120.45817,325.89258C120.459435,325.91483,120.469505,325.93555,120.486115,325.95038C120.50266,325.9652,120.52451,325.9728,120.54676,325.97156L165.85547,323.34668L165.85544,323.34702L211.165,320.7359C211.21126,320.73322,211.24657,320.69366,211.24393,320.64743L210.9772,315.96738L210.71054,311.28735C210.70792,311.24112,210.66832,311.20578,210.62209,311.2084 Z"/>
</g>
<g style="fill:rgb(255,255,255); fill-opacity:1.0; stroke-linejoin: miter">
<path d="M120.7271,329.13687C120.70491,329.13815,120.68405,329.14813,120.669304,329.1647C120.65448,329.1812,120.646835,329.20312,120.64812,329.22534L120.914856,333.90536L121.181625,338.58633C121.182884,338.60852,121.19291,338.6293,121.20951,338.64413C121.22611,338.6589,121.24792,338.6665,121.27013,338.66525L218.13239,333.14404C218.15472,333.14276,218.17557,333.13266,218.1904,333.116C218.20517,333.0992,218.21275,333.0773,218.21135,333.05502L217.91783,328.40494L217.91783,328.4048L217.61098,323.76968C217.60793,323.72382,217.56854,323.6889,217.52263,323.69147L169.13158,326.40656L169.13159,326.40692L120.7271,329.13687 Z"/>
</g>
<g style="fill:rgb(255,255,255); fill-opacity:1.0; stroke-linejoin: miter">
<path d="M121.45456,341.90067C121.432335,341.90192,121.411514,341.91193,121.39674,341.92847C121.38192,341.9451,121.37428,341.9669,121.37554,341.9891L121.64226,346.66913L121.909035,351.35013C121.91031,351.3723,121.92031,351.3931,121.93692,351.40787C121.95352,351.4228,121.97534,351.43036,121.99755,351.42902L190.9215,347.50003C190.94376,347.49878,190.96468,347.48868,190.97946,347.472C190.99425,347.4553,191.00182,347.43332,191.0004,347.41107L190.70697,342.76102L190.70697,342.76077L190.40012,338.12567C190.39708,338.07977,190.3577,338.04486,190.31177,338.04752L155.88985,339.9666L155.88985,339.96692L121.45456,341.90067 Z"/>
</g>
<g style="fill:rgb(255,255,255); fill-opacity:1.0; stroke-linejoin: miter">
<path d="M122.90935,367.4281C122.86311,367.4308,122.82776,367.4704,122.83038,367.51663L123.101135,372.26755L123.37198,377.01947C123.37323,377.04166,123.383255,377.06244,123.39986,377.07727C123.41646,377.09204,123.43826,377.09976,123.46048,377.09842L217.06091,371.76303C217.10716,371.76044,217.1425,371.7209,217.13986,371.67465L216.86911,366.92352L216.59837,362.17276C216.59575,362.12643,216.55615,362.09113,216.50986,362.09372 Z"/>
</g>
<g style="fill:rgb(255,255,255); fill-opacity:1.0; stroke-linejoin: miter">
<path d="M175.14337,390.20404L124.372284,393.09756C124.32602,393.10022,124.29068,393.13977,124.293304,393.1861L124.56003,397.86612L124.82681,402.54633C124.828064,402.56842,124.838104,402.5893,124.85469,402.60397C124.87128,402.6188,124.89311,402.62637,124.91531,402.62512L175.65646,399.7049L226.38266,396.77118C226.4286,396.76843,226.46382,396.7293,226.46162,396.68338L226.23906,392.02933L226.23906,392.02917L226.00314,387.38995C226.002,387.3676,225.99197,387.34677,225.97536,387.33185C225.95877,387.31693,225.93687,387.3092,225.91461,387.3105L175.14337,390.20404 Z"/>
</g>
<g style="fill:rgb(255,255,255); fill-opacity:1.0; stroke-linejoin: miter">
<path d="M173.4152,296.96658C135.31435,299.13803,104.03223,300.9626,103.569855,301.04623L103.56952,301.0466C103.57208,301.04575,103.57334,301.0454,103.57364,301.0452L103.57089,301.04562C103.56097,301.0471,103.527016,301.05685,103.50894,301.08545L103.49974,301.10538C103.49666,301.11508,103.49581,301.12234,103.49536,301.13004C103.46597,301.6182,105.47192,337.5511,107.96744,381.3397L112.53247,461.4403C112.53373,461.4626,112.54375,461.48328,112.56033,461.49805C112.57696,461.5129,112.59878,461.52054,112.62095,461.5193L157.33638,458.97006C181.76079,457.57812,201.80624,456.40765,202.12334,456.3609L202.12439,456.36075C202.13062,456.3598,202.13667,456.3584,202.14479,456.35526L202.1763,456.3339C202.19547,456.3132,202.19966,456.28537,202.20001,456.2804L202.19989,456.28082C202.22012,456.1289,202.11916,454.14804,201.95798,451.8033L201.6641,447.3951C201.66103,447.34933,201.62164,447.31445,201.57571,447.317L160.77281,449.61414L160.77287,449.61444L120.05172,451.89203L119.5966,445.38477L119.5966,445.3849C119.347115,441.75674,117.46869,409.7958,115.43306,374.3265C112.65422,325.80954,111.83459,310.71155,111.89611,309.76132L111.8933,309.7618C112.77136,309.59692,126.983,308.7454,172.42342,306.15567L173.934,306.06992L235.79678,302.543L239.85341,373.72375L243.91,444.9048L238.08109,445.265L238.08087,445.26538L232.15527,445.64536C232.10928,445.64832,232.0743,445.68787,232.07693,445.7338L232.32747,450.13022L232.57802,454.52652C232.57932,454.54886,232.5893,454.56964,232.60591,454.5845C232.62247,454.59918,232.64429,454.6069,232.66647,454.60565L242.452,454.0481L252.23749,453.49023C252.28369,453.48764,252.31903,453.4481,252.31638,453.40176L247.79007,373.2288L243.25029,293.07065C243.24902,293.0484,243.23897,293.0276,243.22235,293.01282C243.20576,292.99796,243.18394,292.9903,243.16176,292.99155 Z"/>
</g>
<g style="fill:rgb(83,93,102); fill-opacity:1.0; stroke-linejoin: miter">
<path d="M104.52925,473.20972L104.522415,473.21033L104.52211,473.21094L104.51271,473.2124L104.51265,473.21295C103.45668,473.41718,103.14363,473.49127,102.67714,473.7019C102.3871,473.83008,101.713455,474.25446,101.20546,474.6303L101.20497,474.63068L100.29512,475.32135L100.27492,475.36536L101.09505,489.11707L101.09505,489.11725L101.93355,502.86932L101.98787,502.91742L110.35658,502.43933L110.40498,502.3853L109.67372,488.59186L109.67378,488.5924L108.925186,474.81775L108.89943,474.77588L107.76729,474.12836L107.767166,474.12836C107.12251,473.76147,106.20247,473.40918,105.678665,473.32764L105.67885,473.328C105.18178,473.24658,104.66249,473.20215,104.52925,473.20972 Z"/>
</g>
<g style="fill:rgb(25,26,26); fill-opacity:1.0; stroke-linejoin: miter">
<path d="M103.28108,503.95776C98.758255,504.2155,95.35512,504.44244,95.17067,504.5144L95.17073,504.51495C95.17024,504.5144,95.145584,504.52246,95.13527,504.54633L95.13289,504.55328C95.13191,504.55676,95.13118,504.56012,95.13063,504.5655L95.13057,504.56598C95.09865,504.9641,96.97396,538.1835,99.29983,578.6731L103.532684,652.62646L103.58676,652.6748L114.65103,652.0991L114.65103,652.0996L125.69632,651.5062L125.7449,651.452L123.09897,605.02356C121.641624,579.4496,119.76266,546.16284,118.93032,530.9204L118.93032,530.9204L117.39082,503.2646L117.33675,503.21613L106.29048,503.79095L106.2903,503.79144C105.16652,503.85168,104.321976,503.89832,103.28108,503.95776 Z"/>
</g>
<g style="fill:rgb(25,26,26); fill-opacity:1.0; stroke-linejoin: miter">
<path d="M124.34601,502.90808L124.29767,502.96216L124.41382,505.0C124.43158,505.31116,124.50482,506.6532,124.61603,508.6872C124.8907,513.7107,125.40474,523.12244,125.97987,533.4387L127.44679,559.8209L127.49989,559.8694L129.64961,559.80164L129.64967,559.8021L131.78145,559.73486L131.83125,559.68066L130.20741,531.1901L128.58478,502.71783L128.5304,502.66943 Z"/>
</g>
<g style="fill:rgb(83,93,102); fill-opacity:1.0; stroke-linejoin: miter">
<path d="M118.3434,503.26807L118.311966,503.30334L118.47279,506.1233L118.63356,508.94434L118.668655,508.97565L123.39874,508.70502L123.430115,508.6698L123.26941,505.84998L123.10858,503.02985L123.07355,502.99866 Z"/>
</g>
<g style="fill:rgb(83,93,102); fill-opacity:1.0; stroke-linejoin: miter">
<path d="M126.13875,548.4546C126.1299,548.4551,126.12355,548.458,126.11958,548.4602L126.11946,548.4607C125.88368,548.5841,121.81161,553.7838,121.753075,554.0348L121.753075,554.0348C121.7524,554.03784,121.75143,554.04395,121.75167,554.0491C121.751976,554.0536,121.753075,554.0587,121.753746,554.06104L121.75399,554.0614C121.83108,554.3175,126.31929,558.9999,126.64101,559.1831L126.64241,559.18384C126.64693,559.1863,126.65407,559.1885,126.662796,559.188C126.68324,559.1869,126.694046,559.1708,126.69777,559.16455L126.697586,559.16504C126.7823,559.0182,126.726456,556.9009,126.553604,553.8668C126.38954,550.9907,126.220474,548.6184,126.175186,548.48193L126.17531,548.4824C126.175674,548.48193,126.166275,548.453,126.13875,548.4546 Z"/>
</g>
<g style="fill:rgb(83,93,102); fill-opacity:1.0; stroke-linejoin: miter">
<path d="M103.52762,653.55505L103.45889,653.64844L103.601166,654.2245L103.601166,654.225C103.72598,654.7809,106.00559,666.6282,106.9976,671.8773C107.15336,672.718,107.40635,674.0377,107.649574,675.307L107.64951,675.3075L107.909096,676.6625C108.09733,677.6478,108.26957,678.55273,108.37388,679.1006C108.46775,679.59424,108.55546,680.0552,108.65342,680.5675L108.65348,680.5681C108.80961,681.38525,109.00968,682.42847,109.33897,684.1373L109.338905,684.13794C109.4246,684.595,109.59489,685.5023,109.65891,685.843L109.65885,685.8435L109.84251,686.823C109.91941,687.2334,109.96543,687.48315,109.968544,687.50745L109.96848,687.50806C109.97343,687.5613,110.02689,687.577,110.04331,687.5791L110.05314,687.57935C110.33378,687.5991,113.30601,687.4629,116.86271,687.26013L116.874245,687.26L123.69644,686.8707L123.76669,686.8074L123.83359,686.38354C123.90158,685.95557,125.852936,653.0033,125.83304,652.5801L125.83298,652.5792L125.83292,652.57874C125.83035,652.53345,125.79788,652.50793,125.779144,652.4971L125.779205,652.49756C125.52518,652.34717,122.91177,652.45056,114.64346,652.92163 Z"/>
</g>
<g style="fill:rgb(0,0,0); fill-opacity:1.0; stroke-linejoin: miter">
<path d="M116.75358,688.02795C113.95817,688.18726,112.924355,688.28406,112.789406,688.4862L112.789345,688.48645C112.77366,688.51025,112.76481,688.53784,112.76652,688.5679C112.76652,688.56836,112.767006,688.5736,112.767006,688.5736C112.78416,688.7406,113.49345,691.2528,114.348305,694.18945C115.21073,697.15173,116.46293,701.5144,117.10905,703.8867L117.10905,703.8872C117.755226,706.1931,118.29795,708.12756,118.36338,708.2589L118.36338,708.2594C118.364235,708.2606,118.37083,708.27527,118.38419,708.2871L118.38444,708.2875C118.39347,708.29553,118.41837,708.3157,118.45463,708.3136C118.498695,708.31104,118.52305,708.27844,118.53263,708.26184C118.62736,708.1019,118.76176,706.7827,119.56559,699.0316L119.664406,698.0797L119.664406,698.0802L119.667274,698.0509L119.667336,698.0515C120.18046,693.0233,120.64054,688.70605,120.68095,688.3889L120.680824,688.3894L120.762,687.89136L120.68345,687.80396 Z"/>
</g>
<g style="fill:rgb(255,255,255); fill-opacity:1.0; stroke-linejoin: miter">
<path d="M135.54204,431.05295L161.45113,429.57657L187.36024,428.1002Q187.41542,429.06778,187.47054,430.03528Q161.56143,431.51193,135.65236,432.98868Q135.5972,432.0208,135.54204,431.05295"/>
</g>
<g style="fill:rgb(255,255,255); fill-opacity:1.0; stroke-linejoin: miter">
<path d="M948.989,344.25867L948.98425,344.2898L948.98376,344.29254L948.93726,344.28687L948.9341,344.289Q948.96326,344.26965,948.989,344.25867 Z"/>
</g>
<g style="fill:rgb(145,149,155); fill-opacity:1.0; stroke-linejoin: miter">
<path d="M694.6409,749.1376Q689.10455,748.13074,683.5681,747.12775L694.66486,749.14185 Z"/>
</g>
<g style="fill:rgb(145,149,155); fill-opacity:1.0; stroke-linejoin: miter">
<path d="M694.66486,749.14185L694.66425,749.1455L694.66486,749.14185Q694.6768,749.14404,694.6888,749.14624 Z"/>
</g>
<g style="fill:rgb(251,193,168); fill-opacity:1.0; stroke-linejoin: miter">
<path d="M-52.60443,695.0051C-54.263428,690.3055,-52.44989,687.1927,-50.30542,685.22577C-52.892822,684.1975,-55.042725,682.09796,-56.04065,679.271C-57.874146,674.0773,-55.14026,668.36163,-49.947205,666.52734L-22.886719,656.9768L-26.52771,651.0358C-31.38501,643.1137,-33.617126,632.9568,-34.187134,630.0333C-35.534485,623.10913,-32.313232,613.6973,-25.9859,611.46375L-25.535156,611.30554C-22.529419,610.2436,-16.880188,610.175,-12.830078,621.6482C-2.9748535,649.5659,9.740356,645.4563,10.330322,645.24805L10.330994,645.2498L12.213745,644.58307L10.883728,640.8158L41.02307,630.17725L66.290344,701.7543L36.152527,712.3971L34.82202,708.6277L-17.919678,727.2498C-23.114258,729.0806,-28.830017,726.34686,-30.663574,721.154C-31.437256,718.96124,-31.397034,716.6757,-30.703064,714.6282C-35.351562,715.34503,-40.0119,712.67487,-41.634033,708.0796C-42.40851,705.8869,-42.367737,703.60223,-41.673218,701.5546C-46.322815,702.26984,-50.982544,699.5997,-52.60443,695.0051 Z M61.193542,699.31744L38.585327,635.2729L15.981506,643.2552L38.58911,707.29785L61.194214,699.31915 Z"/>
</g>
<g style="fill:rgb(0,0,0); fill-opacity:1.0; stroke-linejoin: miter">
<path d="M43.277954,627.94055L23.287476,634.9984L3.296997,642.05524Q16.27539,678.8203,29.253906,715.5856Q49.244324,708.5289,69.2352,701.4719Q56.256836,664.70667,43.277954,627.94055"/>
</g>
<g style="fill:rgb(187,28,147); fill-opacity:1.0; stroke-linejoin: miter">
<path d="M736.27,863.3556C733.15137,862.78845,730.0817,863.1664,727.3484,864.28174L705.7643,842.52576C706.41364,841.2118,706.89624,839.79065,707.17145,838.277C707.44653,836.76404,707.4952,835.26404,707.3498,833.80646L734.45905,821.38617C736.7065,823.68805,739.662,825.3437,743.06946,825.9633C751.79926,827.5508,760.16345,821.75964,761.7509,813.0298C763.33826,804.29987,757.54846,795.936,748.81824,794.34845C740.0884,792.76117,731.72437,798.5513,730.137,807.28125C729.9273,808.43445,729.8499,809.5797,729.88824,810.70496L702.0904,823.44183C699.95276,821.52057,697.2744,820.1476,694.2393,819.5957C685.50903,818.00824,677.14496,823.7993,675.5576,832.5283C673.97015,841.2582,679.76025,849.6231,688.4905,851.2105C691.5256,851.7624,694.5158,851.4205,697.19305,850.3746L718.8934,872.2487C718.296,873.5035,717.8492,874.85614,717.5887,876.2891C716.0013,885.0181,721.7914,893.38293,730.5212,894.97034C739.2514,896.55774,747.6152,890.76666,749.2026,882.03766C750.7901,873.30695,745.0003,864.943,736.27,863.3556 Z"/>
</g>
</g>
</svg>